<?xml version="1.0" standalone="no"?>
<!DOCTYPE svg PUBLIC "-//W3C//DTD SVG 20010904//EN"
 "http://www.w3.org/TR/2001/REC-SVG-20010904/DTD/svg10.dtd">
<svg version="1.0" xmlns="http://www.w3.org/2000/svg"
 width="700.000000pt" height="700.000000pt" viewBox="0 0 700.000000 700.000000"
 preserveAspectRatio="xMidYMid meet">
<metadata>
Created by potrace 1.11, written by Peter Selinger 2001-2013
</metadata>
<g transform="translate(0.000000,700.000000) scale(0.100000,-0.100000)"
fill="#000000" stroke="none">
<path d="M3309 6980 c-192 -41 -358 -153 -438 -294 -29 -52 -31 -53 -83 -60
-158 -21 -217 -32 -297 -57 -280 -88 -364 -276 -356 -799 2 -113 5 -218 8
-235 4 -16 8 -48 11 -70 22 -170 79 -261 205 -325 76 -38 305 -96 389 -99 21
-1 22 -4 22 -106 l0 -105 -47 -1 c-27 -1 -61 -3 -78 -4 -16 -1 -84 -5 -150 -9
-182 -11 -226 -16 -270 -27 -115 -31 -187 -107 -219 -232 -12 -46 -16 -51 -62
-71 -52 -22 -176 -89 -197 -106 -7 -5 -46 -36 -87 -68 -268 -210 -486 -551
-633 -992 -48 -142 -54 -167 -82 -320 -21 -118 -26 -177 -25 -295 0 -139 12
-231 44 -352 l14 -51 -43 -31 c-155 -112 -254 -349 -249 -601 3 -178 25 -280
68 -316 28 -25 35 -26 101 -21 38 3 79 8 90 10 11 3 47 8 80 12 32 3 62 8 65
10 3 2 33 6 65 10 33 3 67 8 75 10 8 2 35 7 60 10 25 3 104 14 175 25 72 10
150 22 175 25 25 3 52 8 60 10 8 2 40 7 70 10 101 12 133 47 144 155 3 30 8
66 11 80 7 32 7 227 0 260 -2 14 -7 36 -10 49 -19 99 -92 256 -137 299 -30 28
-137 82 -163 82 -67 0 -90 82 -90 320 0 170 4 205 36 330 42 167 135 346 248
480 53 62 120 129 131 130 3 0 5 -147 5 -327 0 -311 1 -330 20 -358 42 -64 84
-87 198 -110 l28 -6 -5 -107 c-16 -301 -35 -1005 -41 -1527 -2 -154 -4 -285
-4 -291 -1 -7 -18 -20 -38 -29 -131 -62 -232 -192 -274 -351 -15 -59 -21 -111
-21 -204 -1 -175 10 -213 71 -244 54 -28 123 -35 521 -53 217 -9 768 -10 832
-1 93 13 155 70 189 173 l13 40 17 -55 c34 -110 78 -159 166 -182 55 -14 518
-17 798 -5 311 13 419 19 436 22 10 2 39 7 66 10 78 12 121 41 137 94 14 45
16 290 3 336 -34 127 -74 209 -137 281 -32 37 -94 84 -143 109 -21 11 -40 22
-42 26 -2 3 -7 212 -10 465 -6 469 -8 540 -20 889 -4 110 -9 234 -10 275 -2
41 -4 122 -5 180 l-3 105 35 10 c56 16 88 43 110 93 20 45 21 64 22 464 1 230
3 418 6 418 3 0 35 -23 72 -51 187 -140 340 -392 433 -715 42 -146 50 -199 49
-339 0 -117 -5 -155 -31 -244 -30 -105 -54 -148 -92 -168 -112 -57 -227 -192
-284 -335 -27 -68 -57 -198 -57 -247 0 -42 28 -97 56 -110 19 -8 138 -41 204
-56 8 -2 42 -10 75 -18 33 -9 71 -18 85 -21 14 -2 57 -12 95 -21 39 -9 81 -19
95 -21 14 -3 70 -13 125 -24 55 -10 120 -21 145 -25 98 -13 119 -16 156 -21
113 -16 167 -8 220 33 40 30 59 70 79 164 25 116 22 191 -11 288 -56 169 -210
347 -348 405 l-37 15 17 38 c113 256 143 493 100 806 -7 46 -8 52 -29 147 -75
329 -217 602 -428 824 -157 164 -391 310 -652 407 -97 36 -117 46 -117 62 -1
29 -49 127 -81 161 -40 45 -106 80 -169 91 -25 5 -108 9 -185 11 -77 1 -155 3
-173 3 l-33 1 7 88 c4 48 7 88 8 89 1 2 64 10 136 18 378 42 525 256 523 765
0 52 -3 129 -6 170 -5 67 -11 103 -31 217 -13 71 -57 191 -86 235 -66 100
-161 168 -295 213 -65 22 -101 27 -204 30 -69 2 -134 4 -144 4 -10 1 -22 13
-28 29 -52 143 -169 240 -344 287 -92 25 -263 27 -366 5z m287 -4255 c1 -33 5
-208 9 -390 3 -181 8 -359 10 -395 2 -36 6 -135 9 -220 4 -85 9 -177 11 -205
2 -27 7 -95 10 -150 5 -96 12 -188 20 -285 2 -25 7 -89 10 -142 l7 -96 -33
-17 c-81 -43 -153 -145 -185 -267 -19 -71 -34 -95 -34 -56 0 40 -39 158 -71
214 -30 54 -83 108 -137 139 -29 17 -31 22 -26 64 2 25 6 84 9 131 3 47 7 105
10 130 2 25 7 86 10 135 3 50 8 117 10 150 4 55 13 229 20 385 6 136 17 523
20 720 2 113 4 208 4 212 1 4 72 7 159 5 l157 -2 1 -60z"/>
</g>
</svg>
